<svg width="32" height="33" viewBox="0 0 32 33" fill="none" xmlns="http://www.w3.org/2000/svg">
<path d="M23.1201 7.31988C22.8036 7.31988 22.4943 7.41371 22.2312 7.58953C21.9681 7.76534 21.763 8.01522 21.6419 8.30758C21.5208 8.59994 21.4891 8.92165 21.5508 9.23202C21.6126 9.54239 21.7649 9.82748 21.9887 10.0512C22.2125 10.275 22.4976 10.4274 22.8079 10.4891C23.1183 10.5509 23.44 10.5192 23.7324 10.3981C24.0247 10.277 24.2746 10.0719 24.4504 9.80879C24.6262 9.54567 24.7201 9.23633 24.7201 8.91988C24.7201 8.49553 24.5515 8.08856 24.2515 7.78851C23.9514 7.48845 23.5444 7.31988 23.1201 7.31988ZM29.2534 10.5465C29.2275 9.44027 29.0203 8.34575 28.6401 7.30654C28.3011 6.41739 27.7734 5.61225 27.0934 4.94654C26.4332 4.26311 25.6262 3.73878 24.7334 3.41321C23.697 3.02142 22.6012 2.80949 21.4934 2.78654C20.0801 2.70654 19.6267 2.70654 16.0001 2.70654C12.3734 2.70654 11.9201 2.70654 10.5067 2.78654C9.39895 2.80949 8.30321 3.02142 7.26675 3.41321C6.37565 3.74207 5.56933 4.26596 4.90675 4.94654C4.22332 5.60678 3.69898 6.4138 3.37341 7.30654C2.98163 8.343 2.76969 9.43875 2.74675 10.5465C2.66675 11.9599 2.66675 12.4132 2.66675 16.0399C2.66675 19.6665 2.66675 20.1199 2.74675 21.5332C2.76969 22.641 2.98163 23.7368 3.37341 24.7732C3.69898 25.666 4.22332 26.473 4.90675 27.1332C5.56933 27.8138 6.37565 28.3377 7.26675 28.6665C8.30321 29.0583 9.39895 29.2703 10.5067 29.2932C11.9201 29.3732 12.3734 29.3732 16.0001 29.3732C19.6267 29.3732 20.0801 29.3732 21.4934 29.2932C22.6012 29.2703 23.697 29.0583 24.7334 28.6665C25.6262 28.341 26.4332 27.8166 27.0934 27.1332C27.7764 26.47 28.3045 25.6641 28.6401 24.7732C29.0203 23.734 29.2275 22.6395 29.2534 21.5332C29.2534 20.1199 29.3334 19.6665 29.3334 16.0399C29.3334 12.4132 29.3334 11.9599 29.2534 10.5465ZM26.8534 21.3732C26.8437 22.2196 26.6904 23.0581 26.4001 23.8532C26.1872 24.4335 25.8453 24.9578 25.4001 25.3865C24.9676 25.8272 24.4444 26.1685 23.8667 26.3865C23.0717 26.6769 22.2331 26.8302 21.3867 26.8399C20.0534 26.9065 19.5601 26.9199 16.0534 26.9199C12.5467 26.9199 12.0534 26.9199 10.7201 26.8399C9.84127 26.8563 8.96621 26.721 8.13341 26.4399C7.58112 26.2106 7.08189 25.8703 6.66675 25.4399C6.2242 25.0115 5.88654 24.4868 5.68008 23.9065C5.35456 23.1001 5.17401 22.2425 5.14675 21.3732C5.14675 20.0399 5.06675 19.5465 5.06675 16.0399C5.06675 12.5332 5.06675 12.0399 5.14675 10.7065C5.15272 9.84128 5.31068 8.9838 5.61341 8.17321C5.84814 7.61042 6.20843 7.10875 6.66675 6.70654C7.07183 6.2481 7.57246 5.884 8.13341 5.63988C8.94615 5.3466 9.80274 5.19332 10.6667 5.18654C12.0001 5.18654 12.4934 5.10654 16.0001 5.10654C19.5067 5.10654 20.0001 5.10654 21.3334 5.18654C22.1798 5.19625 23.0184 5.34954 23.8134 5.63988C24.4193 5.86475 24.9631 6.23034 25.4001 6.70654C25.837 7.11611 26.1784 7.61685 26.4001 8.17321C26.6964 8.98512 26.8498 9.84225 26.8534 10.7065C26.9201 12.0399 26.9334 12.5332 26.9334 16.0399C26.9334 19.5465 26.9201 20.0399 26.8534 21.3732ZM16.0001 9.19988C14.6478 9.20251 13.3267 9.60591 12.2036 10.3591C11.0805 11.1123 10.2059 12.1815 9.69026 13.4315C9.1746 14.6816 9.04105 16.0565 9.30647 17.3824C9.5719 18.7084 10.2244 19.9259 11.1815 20.8812C12.1386 21.8364 13.3574 22.4866 14.6839 22.7494C16.0104 23.0123 17.385 22.876 18.634 22.3579C19.8831 21.8398 20.9506 20.9631 21.7016 19.8386C22.4526 18.714 22.8534 17.3921 22.8534 16.0399C22.8552 15.14 22.679 14.2487 22.3351 13.4172C21.9911 12.5856 21.4862 11.8303 20.8492 11.1946C20.2123 10.5589 19.456 10.0554 18.6238 9.71312C17.7916 9.37078 16.8999 9.19636 16.0001 9.19988ZM16.0001 20.4799C15.1219 20.4799 14.2635 20.2195 13.5333 19.7316C12.8032 19.2437 12.2341 18.5503 11.8981 17.739C11.562 16.9277 11.4741 16.035 11.6454 15.1737C11.8167 14.3124 12.2396 13.5213 12.8605 12.9003C13.4815 12.2794 14.2726 11.8565 15.1339 11.6852C15.9952 11.5139 16.8879 11.6018 17.6992 11.9379C18.5105 12.2739 19.2039 12.843 19.6918 13.5731C20.1797 14.3033 20.4401 15.1617 20.4401 16.0399C20.4401 16.6229 20.3252 17.2003 20.1021 17.739C19.879 18.2777 19.5519 18.7671 19.1396 19.1794C18.7273 19.5917 18.2379 19.9188 17.6992 20.1419C17.1605 20.365 16.5832 20.4799 16.0001 20.4799Z" fill="#ED8696"/>
</svg>
