<svg width="20" height="20" viewBox="0 0 20 20" fill="none" xmlns="http://www.w3.org/2000/svg">
<path d="M19.07 14.8114L17 12.6914C16.5547 12.2681 15.9931 11.9877 15.3872 11.8861C14.7813 11.7846 14.1589 11.8665 13.6 12.1214L12.7 11.2214C13.7605 9.8043 14.2449 8.03806 14.0555 6.27822C13.8662 4.51838 13.0172 2.89561 11.6794 1.73659C10.3417 0.577562 8.61452 -0.0316563 6.84565 0.0315712C5.07678 0.0947988 3.39754 0.825777 2.14596 2.07736C0.894381 3.32893 0.163402 5.00818 0.100175 6.77705C0.0369472 8.54592 0.646165 10.2731 1.80519 11.6108C2.96421 12.9486 4.58699 13.7976 6.34683 13.9869C8.10667 14.1763 9.87291 13.6919 11.29 12.6314L12.18 13.5214C11.8951 14.081 11.793 14.716 11.8881 15.3367C11.9831 15.9574 12.2706 16.5327 12.71 16.9814L14.83 19.1014C15.3925 19.6632 16.155 19.9787 16.95 19.9787C17.745 19.9787 18.5075 19.6632 19.07 19.1014C19.3557 18.822 19.5828 18.4883 19.7378 18.12C19.8928 17.7516 19.9726 17.356 19.9726 16.9564C19.9726 16.5568 19.8928 16.1611 19.7378 15.7928C19.5828 15.4244 19.3557 15.0908 19.07 14.8114ZM10.59 10.5714C9.89023 11.2694 8.99929 11.7443 8.02973 11.9362C7.06017 12.1281 6.05549 12.0284 5.14259 11.6496C4.2297 11.2708 3.44955 10.6299 2.9007 9.80792C2.35185 8.98595 2.05893 8.01976 2.05893 7.03139C2.05893 6.04302 2.35185 5.07682 2.9007 4.25485C3.44955 3.43288 4.2297 2.79201 5.14259 2.4132C6.05549 2.03439 7.06017 1.93464 8.02973 2.12654C8.99929 2.31844 9.89023 2.79339 10.59 3.49139C11.0556 3.95584 11.4251 4.5076 11.6771 5.11505C11.9292 5.7225 12.0589 6.37371 12.0589 7.03139C12.0589 7.68906 11.9292 8.34027 11.6771 8.94772C11.4251 9.55517 11.0556 10.1069 10.59 10.5714ZM17.66 17.6414C17.567 17.7351 17.4564 17.8095 17.3346 17.8603C17.2127 17.911 17.082 17.9372 16.95 17.9372C16.818 17.9372 16.6873 17.911 16.5654 17.8603C16.4436 17.8095 16.333 17.7351 16.24 17.6414L14.12 15.5214C14.0263 15.4284 13.9519 15.3178 13.9011 15.196C13.8503 15.0741 13.8242 14.9434 13.8242 14.8114C13.8242 14.6794 13.8503 14.5487 13.9011 14.4268C13.9519 14.305 14.0263 14.1944 14.12 14.1014C14.213 14.0077 14.3236 13.9333 14.4454 13.8825C14.5673 13.8317 14.698 13.8056 14.83 13.8056C14.962 13.8056 15.0927 13.8317 15.2146 13.8825C15.3364 13.9333 15.447 14.0077 15.54 14.1014L17.66 16.2214C17.7537 16.3143 17.8281 16.425 17.8789 16.5468C17.9296 16.6687 17.9558 16.7994 17.9558 16.9314C17.9558 17.0634 17.9296 17.1941 17.8789 17.316C17.8281 17.4378 17.7537 17.5484 17.66 17.6414Z" fill="#FFAD61"/>
</svg>
