<svg xmlns="http://www.w3.org/2000/svg" xmlns:xlink="http://www.w3.org/1999/xlink" width="51.125" height="51.125" viewBox="0 0 51.125 51.125"><defs><style>.a{fill:#faced7;}.b{fill:#ED8696;}.c{clip-path:url(#a);}</style><clipPath id="a"><rect class="a" width="24" height="28" transform="translate(0.198 -0.211)"/></clipPath></defs><g transform="translate(-1057 -8799)"><path class="b" d="M25.563,0A25.562,25.562,0,1,1,0,25.562,25.638,25.638,0,0,1,25.563,0Z" transform="translate(1057 8799)"/><g transform="translate(699.802 8463.081)"><g transform="translate(371 348.13)"><g class="c" transform="translate(0 0)"><path class="a" d="M395.866,355.222a6.985,6.985,0,0,1-7-6.929H384.35v12.346l-.005,6.763a4.1,4.1,0,1,1-2.809-3.881v-4.588a8.91,8.91,0,0,0-1.3-.1,8.664,8.664,0,0,0-6.51,2.911,8.491,8.491,0,0,0,.383,11.708,8.8,8.8,0,0,0,.816.713,8.666,8.666,0,0,0,5.311,1.8,8.876,8.876,0,0,0,1.3-.1,8.635,8.635,0,0,0,4.824-2.413,8.458,8.458,0,0,0,2.538-6.02l-.023-10.1a11.451,11.451,0,0,0,7.006,2.381v-4.5s-.012,0-.013,0Zm0,0" transform="translate(-371.526 -348.341)"/></g></g></g></g></svg>